<?xml version="1.0" encoding="utf-8"?>
<svg viewBox="0 0 500 500" xmlns="http://www.w3.org/2000/svg">
  <g id="icon" transform="matrix(1, 0, 0, 1, -1119.760498, -2160.684082)">
    <g id="bg" fill="#fff" stroke-linejoin="round">
      <path d="M 1367.999877929688 2395.85400390625 C 1365.7294921875 2395.85400390625 1363.594848632812 2394.969970703125 1361.989501953125 2393.364990234375 L 1326.634155273438 2358.009765625 C 1325.02880859375 2356.404052734375 1324.144653320312 2354.26953125 1324.144653320312 2351.998779296875 C 1324.144653320312 2349.728271484375 1325.028686523438 2347.593994140625 1326.634155273438 2345.98876953125 L 1361.989624023438 2310.6328125 C 1363.595092773438 2309.02734375 1365.7294921875 2308.14306640625 1367.999877929688 2308.14306640625 C 1370.270263671875 2308.14306640625 1372.404907226562 2309.02734375 1374.010375976562 2310.6328125 L 1409.365600585938 2345.988525390625 C 1410.971069335938 2347.593994140625 1411.855224609375 2349.728271484375 1411.855224609375 2351.998779296875 C 1411.855224609375 2354.26953125 1410.971069335938 2356.404052734375 1409.365600585938 2358.009765625 L 1374.010375976562 2393.365234375 C 1372.405029296875 2394.969970703125 1370.270385742188 2395.85400390625 1367.999877929688 2395.85400390625 Z" stroke="none"/>
      <path d="M 1367.999877929688 2309.64306640625 C 1366.130249023438 2309.64306640625 1364.372436523438 2310.371337890625 1363.05029296875 2311.693603515625 L 1327.694702148438 2347.04931640625 C 1326.372680664062 2348.371337890625 1325.644653320312 2350.129150390625 1325.644653320312 2351.998779296875 C 1325.644653320312 2353.868896484375 1326.372802734375 2355.626708984375 1327.69482421875 2356.948974609375 L 1363.050048828125 2392.30419921875 C 1364.372192382812 2393.6259765625 1366.130004882812 2394.35400390625 1367.999877929688 2394.35400390625 C 1369.869750976562 2394.35400390625 1371.627807617188 2393.6259765625 1372.94970703125 2392.304443359375 L 1408.304931640625 2356.948974609375 C 1409.627075195312 2355.626708984375 1410.355224609375 2353.868896484375 1410.355224609375 2351.998779296875 C 1410.355224609375 2350.129150390625 1409.627197265625 2348.371337890625 1408.304931640625 2347.04931640625 L 1372.94970703125 2311.693603515625 C 1371.62744140625 2310.371337890625 1369.86962890625 2309.64306640625 1367.999877929688 2309.64306640625 M 1367.999877929688 2306.64306640625 C 1370.55908203125 2306.64306640625 1373.118286132812 2307.619384765625 1375.071044921875 2309.572265625 L 1410.42626953125 2344.927978515625 C 1414.33154296875 2348.832763671875 1414.33154296875 2355.164794921875 1410.42626953125 2359.0703125 L 1375.071044921875 2394.42578125 C 1373.118286132812 2396.3779296875 1370.55908203125 2397.35400390625 1367.999877929688 2397.35400390625 C 1365.440673828125 2397.35400390625 1362.881469726562 2396.3779296875 1360.928955078125 2394.42578125 L 1325.573486328125 2359.0703125 C 1321.668334960938 2355.164794921875 1321.668334960938 2348.832763671875 1325.573486328125 2344.927978515625 L 1360.928955078125 2309.572265625 C 1362.881469726562 2307.619384765625 1365.440673828125 2306.64306640625 1367.999877929688 2306.64306640625 Z" stroke="none" fill="#232b38"/>
    </g>
    <text style="white-space: pre; fill: rgb(51, 51, 51); font-family: Arial, sans-serif; font-size: 16.4px;" x="1353.263" y="2357.585">24H</text>
    <text style="white-space: pre; fill: rgb(51, 51, 51); font-family: Arial, sans-serif; font-size: 16.4px;" x="1446.052" y="2313.853"> </text>
  </g>
</svg>